# xmcd
#
# Track frame offsets:
#	150
#	23497
#	41785
#	56355
#	70530
#	91107
#	108847
#	121302
#	136867
#	150662
#	165495
#	182525
#	203192
#	217887
#	232295
#
# Disc length: 3335 seconds
#
# Revision: 1
# Processed by: cddbd v1.5.1PL2 Copyright (c) Steve Scherf et al.
# Submitted via: audiograbber 1.83.01
#
DISCID=ba0d050f
DTITLE=Various Artist - SC8291
DYEAR=1900
DGENRE=Country
TTITLE0=Judd, Wynona - It's Never Easy To Say Good Bye
TTITLE1=Mcentire, Reba - He Wants To Get Married
TTITLE2=Greenwood, Lee - Great Defenders, The
TTITLE3=Tucker, Tanya - Half The Moon
TTITLE4=Stuart, Marty - If I Give My Soul
TTITLE5=Cyrus, Billy Ray - It Won't Be My Last
TTITLE6=Strait, George - Nobody Has To Get Hurt
TTITLE7=Brooks, Garth - Night I Called The Old Man Out, The
TTITLE8=Huston, Randy - Lookin The Wolf In The Eye
TTITLE9=Raye, Collin - Somebody Else's Moon
TTITLE10=Skaggs, Ricky - Thanks Again
TTITLE11=Tillis, Pam - Silver Wings
TTITLE12=Yearwood, Trisha - Those Words We Said
TTITLE13=Reeves, Ronna - That's Alright With Me
TTITLE14=Allen, Deborah - Rock Me In The Cradle Of Love
EXTD=
EXTT0=
EXTT1=
EXTT2=
EXTT3=
EXTT4=
EXTT5=
EXTT6=
EXTT7=
EXTT8=
EXTT9=
EXTT10=
EXTT11=
EXTT12=
EXTT13=
EXTT14=
PLAYORDER=
